<svg height="191pt" viewBox="0.00 0.00 291.63 191.00" width="292pt" xmlns="http://www.w3.org/2000/svg" xmlns:xlink="http://www.w3.org/1999/xlink">
<g class="graph" id="graph0" transform="scale(1 1) rotate(0) translate(4 187)">
<title>G</title>
<polygon fill="white" points="-4,4 -4,-187 287.631,-187 287.631,4 -4,4" stroke="none"/>
<!-- 5274278880 -->
<g class="node" id="node1"><title>5274278880</title>
<polygon fill="none" points="0,-146.5 0,-182.5 119.024,-182.5 119.024,-146.5 0,-146.5" stroke="black"/>
<text font-family="Times,serif" font-size="14.00" text-anchor="middle" x="59.5122" y="-160.3">origin: InputLayer</text>
</g>
<!-- 5304745880 -->
<g class="node" id="node3"><title>5304745880</title>
<polygon fill="none" points="82.3896,-73.5 82.3896,-109.5 186.635,-109.5 186.635,-73.5 82.3896,-73.5" stroke="black"/>
<text font-family="Times,serif" font-size="14.00" text-anchor="middle" x="134.512" y="-87.3">encoder: Model</text>
</g>
<!-- 5274278880&#45;&gt;5304745880 -->
<g class="edge" id="edge1"><title>5274278880-&gt;5304745880</title>
<path d="M77.6676,-146.313C87.0643,-137.417 98.6925,-126.409 108.979,-116.672" fill="none" stroke="black"/>
<polygon fill="black" points="111.668,-118.945 116.524,-109.529 106.856,-113.862 111.668,-118.945" stroke="black"/>
</g>
<!-- 5274277200 -->
<g class="node" id="node2"><title>5274277200</title>
<polygon fill="none" points="137.393,-146.5 137.393,-182.5 283.631,-182.5 283.631,-146.5 137.393,-146.5" stroke="black"/>
<text font-family="Times,serif" font-size="14.00" text-anchor="middle" x="210.512" y="-160.3">origin_geo: InputLayer</text>
</g>
<!-- 5274277200&#45;&gt;5304745880 -->
<g class="edge" id="edge2"><title>5274277200-&gt;5304745880</title>
<path d="M192.115,-146.313C182.499,-137.33 170.578,-126.193 160.08,-116.386" fill="none" stroke="black"/>
<polygon fill="black" points="162.437,-113.798 152.74,-109.529 157.658,-118.913 162.437,-113.798" stroke="black"/>
</g>
<!-- 5330847224 -->
<g class="node" id="node4"><title>5330847224</title>
<polygon fill="none" points="82.3896,-0.5 82.3896,-36.5 186.635,-36.5 186.635,-0.5 82.3896,-0.5" stroke="black"/>
<text font-family="Times,serif" font-size="14.00" text-anchor="middle" x="134.512" y="-14.3">decoder: Model</text>
</g>
<!-- 5304745880&#45;&gt;5330847224 -->
<g class="edge" id="edge3"><title>5304745880-&gt;5330847224</title>
<path d="M134.512,-73.3129C134.512,-65.2895 134.512,-55.5475 134.512,-46.5691" fill="none" stroke="black"/>
<polygon fill="black" points="138.012,-46.5288 134.512,-36.5288 131.012,-46.5289 138.012,-46.5288" stroke="black"/>
</g>
</g>
</svg>